<svg width="16" height="16" viewBox="0 0 16 16" fill="none" xmlns="http://www.w3.org/2000/svg">
<path fill-rule="evenodd" clip-rule="evenodd" d="M7.99992 14.6666C11.6818 14.6666 14.6666 11.6818 14.6666 7.99992C14.6666 4.31802 11.6818 1.33325 7.99992 1.33325C4.31802 1.33325 1.33325 4.31802 1.33325 7.99992C1.33325 11.6818 4.31802 14.6666 7.99992 14.6666Z" fill="#D00E17" stroke="#D00E17" stroke-width="1.5" stroke-linecap="round" stroke-linejoin="round"/>
<path fill-rule="evenodd" clip-rule="evenodd" d="M8 4.58325C8.41421 4.58325 8.75 4.91904 8.75 5.33325V7.99992C8.75 8.41413 8.41421 8.74992 8 8.74992C7.58579 8.74992 7.25 8.41413 7.25 7.99992V5.33325C7.25 4.91904 7.58579 4.58325 8 4.58325Z" fill="white"/>
<path d="M8.66659 10.6667C8.66659 11.0349 8.36811 11.3333 7.99992 11.3333C7.63173 11.3333 7.33325 11.0349 7.33325 10.6667C7.33325 10.2985 7.63173 10 7.99992 10C8.36811 10 8.66659 10.2985 8.66659 10.6667Z" fill="white"/>
</svg>
