<svg width="20" height="20" viewBox="0 0 20 20" fill="none" xmlns="http://www.w3.org/2000/svg">
  <path d="M8.75 8.75C10.8211 8.75 12.5 7.07107 12.5 5C12.5 2.92893 10.8211 1.25 8.75 1.25C6.67893 1.25 5 2.92893 5 5C5 7.07107 6.67893 8.75 8.75 8.75Z" fill="#0059d6"/>
  <path d="M18.7501 8.74916C18.7519 8.22676 18.6134 7.71347 18.349 7.26291C18.0847 6.81235 17.7041 6.44105 17.2472 6.18783C16.7903 5.93461 16.2738 5.80876 15.7516 5.82341C15.2294 5.83807 14.7207 5.99271 14.2787 6.27117C13.8367 6.54962 13.4776 6.94167 13.239 7.40636C13.0003 7.87104 12.8908 8.3913 12.9219 8.91276C12.9531 9.43423 13.1237 9.93776 13.416 10.3707C13.7082 10.8037 14.1114 11.1503 14.5834 11.3742V15.8325L15.8334 17.0825L17.9167 14.9992L16.6667 13.7492L17.9167 12.4992L16.8834 11.4658C17.4322 11.2541 17.9042 10.8813 18.2373 10.3965C18.5704 9.91163 18.7492 9.3374 18.7501 8.74916ZM15.8334 8.74916C15.6686 8.74916 15.5075 8.70028 15.3704 8.60871C15.2334 8.51715 15.1266 8.387 15.0635 8.23473C15.0004 8.08245 14.9839 7.9149 15.0161 7.75325C15.0482 7.5916 15.1276 7.44311 15.2441 7.32657C15.3607 7.21002 15.5092 7.13066 15.6708 7.0985C15.8325 7.06635 16 7.08285 16.1523 7.14592C16.3046 7.209 16.4347 7.31581 16.5263 7.45285C16.6179 7.58989 16.6667 7.751 16.6667 7.91582C16.6667 8.13684 16.5789 8.3488 16.4227 8.50508C16.2664 8.66136 16.0544 8.74916 15.8334 8.74916Z" fill="#0059d6"/>
  <path d="M12.0333 10.4333C11.3934 10.148 10.7007 10.0004 10 10H7.5C6.17392 10 4.90215 10.5268 3.96447 11.4645C3.02678 12.4021 2.5 13.6739 2.5 15V16.6667H13.3333V12.075C12.7713 11.6433 12.3248 11.0793 12.0333 10.4333V10.4333Z" fill="#0059d6"/>
</svg>
